<svg xmlns="http://www.w3.org/2000/svg" width="53" height="53" viewBox="0 0 53 53">
    <g id="Component_1_1" data-name="Component 1 – 1" transform="translate(1.5 1.5)">
      <path  data-name="Path 1" d="M86.6,61.98a22.807,22.807,0,0,1-.545,2.42,24.326,24.326,0,0,1-1.985,4.99c-.355.675-.745,1.335-1.16,1.97-.3.465-.62.915-.95,1.355-.305.4-.62.8-.951,1.185-.365.43-.75.85-1.145,1.255a22.126,22.126,0,0,1-1.775,1.655,24.969,24.969,0,0,1-5.9,3.72c-.38.17-.77.335-1.16.485a.962.962,0,0,1-.045-.165,14.822,14.822,0,0,1,0-8.075,14.581,14.581,0,0,1,1.62-3.73A14.977,14.977,0,0,1,75.16,65.92a14.9,14.9,0,0,1,10.151-4c.25,0,.494.005.74.02.185,0,.366.02.545.04" transform="translate(-36.96 -32.71)" fill="#00ffc8" stroke-width="0"/>
      <path data-name="Path 2" d="M53.5,28.5a25.552,25.552,0,0,1-.185,3.05c-.05.41-.11.815-.18,1.22a22.932,22.932,0,0,1-.545,2.42A24.326,24.326,0,0,1,50.6,40.18c-.355.675-.745,1.335-1.16,1.97-.305.465-.62.915-.95,1.355-.305.405-.62.8-.95,1.185-.365.43-.75.85-1.145,1.255A22.212,22.212,0,0,1,44.625,47.6a24.972,24.972,0,0,1-5.9,3.72c-.38.17-.77.335-1.16.485s-.79.3-1.19.42A25.07,25.07,0,0,1,28.5,53.5c-.34,0-.676,0-1.01-.025A25.026,25.026,0,0,1,4.26,34.65,25.177,25.177,0,0,1,3.5,28.5,24.994,24.994,0,0,1,27.155,3.54c.445-.03.895-.04,1.345-.04A25.018,25.018,0,0,1,52.59,21.81c.075.25.14.5.2.755A24.954,24.954,0,0,1,53.5,28.5Z" transform="translate(-3.5 -3.5)" fill="none" stroke="#42b3ff" stroke-linecap="round" stroke-linejoin="round" stroke-width="2"/>
      <path data-name="Path 3" d="M60.78,21.57a34.233,34.233,0,0,0-4.33.78,34.683,34.683,0,0,0-8.65,3.39,35.245,35.245,0,0,0-18.21,30.9q0,1.477.125,2.925" transform="translate(-16.545 -12.535)" fill="none" stroke="#42b3ff" stroke-linecap="round" stroke-linejoin="round" stroke-width="2"/>
      <path data-name="Path 5" d="M39.44,22.595a43.632,43.632,0,0,1,9.19-6.865" transform="translate(-21.47 -9.615)" fill="none" stroke="#42b3ff" stroke-linecap="round" stroke-linejoin="round" stroke-width="2"/>
      <path data-name="Path 6" d="M16.27,58.195A42.783,42.783,0,0,1,20.755,47.57" transform="translate(-9.885 -25.535)" fill="none" stroke="#42b3ff" stroke-linecap="round" stroke-linejoin="round" stroke-width="2"/>
      <path data-name="Path 8" d="M76.985,41.61c-.065-.005-.131-.005-.2-.005-.246-.01-.49-.015-.74-.015A25.074,25.074,0,0,0,54.535,53.8a24.75,24.75,0,0,0-2.645,6.175" transform="translate(-27.695 -22.545)" fill="none" stroke="#42b3ff" stroke-linecap="round" stroke-linejoin="round" stroke-width="2"/>
      <path data-name="Path 9" d="M71.025,81.015a1.025,1.025,0,0,1-.045-.165,14.835,14.835,0,0,1,0-8.075,14.6,14.6,0,0,1,1.62-3.73,14.979,14.979,0,0,1,2.56-3.125,14.938,14.938,0,0,1,7-3.66,14.591,14.591,0,0,1,3.155-.34c.25,0,.5,0,.74.02.185,0,.365.02.545.04" transform="translate(-36.96 -32.71)" fill="none" stroke="#42b3ff" stroke-linecap="round" stroke-linejoin="round" stroke-width="2"/>
    </g>
  </svg>