<?xml version="1.0" encoding="utf-8"?>
<!-- Generator: Adobe Illustrator 25.2.3, SVG Export Plug-In . SVG Version: 6.00 Build 0)  -->
<svg version="1.1" id="Layer_1" xmlns="http://www.w3.org/2000/svg" xmlns:xlink="http://www.w3.org/1999/xlink" x="0px" y="0px"
	 viewBox="0 0 53 53" style="enable-background:new 0 0 53 53;" xml:space="preserve">
<style type="text/css">
	.st0{clip-path:url(#SVGID_2_);fill:url(#SVGID_3_);}
	.st1{clip-path:url(#SVGID_2_);fill:#00FFC8;}
	.st2{clip-path:url(#SVGID_2_);}
	.st3{fill:#00FFC8;}
</style>
<g>
	<defs>
		<path id="SVGID_1_" d="M51.5,26.5c0,1-0.1,2-0.2,3c0,0.4-0.1,0.8-0.2,1.2c-0.1,0.8-0.3,1.6-0.5,2.4c-0.5,1.7-1.1,3.4-2,5
			c-0.4,0.7-0.7,1.3-1.2,2c-0.3,0.5-0.6,0.9-1,1.4c-0.3,0.4-0.6,0.8-1,1.2c-0.4,0.4-0.8,0.8-1.1,1.3c-0.6,0.6-1.2,1.1-1.8,1.7
			c-1.8,1.5-3.8,2.8-5.9,3.7c-0.4,0.2-0.8,0.3-1.2,0.5s-0.8,0.3-1.2,0.4c-2.5,0.8-5.2,1.3-7.9,1.3c-0.3,0-0.7,0-1,0
			C14.4,51,5,43.4,2.3,32.7c-0.5-2-0.8-4.1-0.8-6.2c0-13.3,10.4-24.2,23.7-25c0.4,0,0.9,0,1.3,0c11.2,0,21.1,7.5,24.1,18.3
			c0.1,0.2,0.1,0.5,0.2,0.8C51.3,22.5,51.5,24.5,51.5,26.5z"/>
	</defs>
	<clipPath id="SVGID_2_">
		<use xlink:href="#SVGID_1_"  style="overflow:visible;"/>
	</clipPath>
	<radialGradient id="SVGID_3_" cx="52.7509" cy="53.1008" r="61.785" gradientUnits="userSpaceOnUse">
		<stop  offset="0" style="stop-color:#004D91"/>
		<stop  offset="1" style="stop-color:#42B3FF"/>
	</radialGradient>
	<path class="st0" d="M51.5,26.5c0,1-0.1,2-0.2,3c0,0.4-0.1,0.8-0.2,1.2c-0.1,0.8-0.3,1.6-0.5,2.4c-0.5,1.7-1.1,3.4-2,5
		c-0.4,0.7-0.7,1.3-1.2,2c-0.3,0.5-0.6,0.9-1,1.4c-0.3,0.4-0.6,0.8-1,1.2c-0.4,0.4-0.8,0.8-1.1,1.3c-0.6,0.6-1.2,1.1-1.8,1.7
		c-1.8,1.5-3.8,2.8-5.9,3.7c-0.4,0.2-0.8,0.3-1.2,0.5s-0.8,0.3-1.2,0.4c-2.5,0.8-5.2,1.3-7.9,1.3c-0.3,0-0.7,0-1,0
		C14.4,51,5,43.4,2.3,32.7c-0.5-2-0.8-4.1-0.8-6.2c0-13.3,10.4-24.2,23.7-25c0.4,0,0.9,0,1.3,0c11.2,0,21.1,7.5,24.1,18.3
		c0.1,0.2,0.1,0.5,0.2,0.8C51.3,22.5,51.5,24.5,51.5,26.5z"/>
	<path class="st1" d="M51.1,30.8c-0.1,0.8-0.3,1.6-0.5,2.4c-0.5,1.7-1.1,3.4-2,5c-0.4,0.7-0.7,1.3-1.2,2c-0.3,0.5-0.6,0.9-0.9,1.4
		c-0.3,0.4-0.6,0.8-1,1.2c-0.4,0.4-0.8,0.8-1.1,1.3c-0.6,0.6-1.2,1.1-1.8,1.7c-1.8,1.5-3.8,2.8-5.9,3.7c-0.4,0.2-0.8,0.3-1.2,0.5
		c0-0.1,0-0.1,0-0.2c-0.7-2.6-0.7-5.4,0-8.1c0.4-1.3,0.9-2.6,1.6-3.7c0.7-1.2,1.6-2.2,2.6-3.1c2.8-2.6,6.4-4,10.2-4
		c0.2,0,0.5,0,0.7,0C50.8,30.7,51,30.8,51.1,30.8"/>
	<g class="st2">
		<path class="st3" d="M45.7,10.5c-4.5,0.7-8.8,2.2-12.7,4.4c-3.9,2.2-7.4,5.1-10.2,8.6c-1.4,1.7-2.7,3.6-3.7,5.5c-0.6,1-1,2-1.5,3
			c-0.4,1-0.8,2.1-1.2,3.1c-0.4,1.1-0.6,2.1-0.9,3.2c-0.2,1.1-0.5,2.2-0.6,3.3c-0.1,0.6-0.2,1.1-0.2,1.7l-0.1,1.7
			c-0.1,1.1,0,2.3,0,3.4c-0.5-4.5-0.2-9.1,1.1-13.5c0.6-2.2,1.5-4.3,2.6-6.3c1-2,2.3-3.9,3.8-5.7c2.9-3.5,6.5-6.5,10.6-8.6
			c2-1.1,4.1-1.9,6.3-2.6C41.2,11.1,43.5,10.7,45.7,10.5z"/>
	</g>
	<g class="st2">
		<path class="st3" d="M19.5,14.5c1.1-1.6,2.5-3,4.1-4.1c1.6-1.1,3.3-2.1,5.1-2.7c-1.5,1.3-3,2.4-4.5,3.5
			C22.6,12.3,21.1,13.4,19.5,14.5z"/>
	</g>
	<g class="st2">
		<path class="st3" d="M7.9,34.2c0.1-2,0.7-3.9,1.4-5.7c0.8-1.8,1.7-3.5,3.1-5c-0.6,1.9-1.4,3.6-2.1,5.4C9.5,30.6,8.8,32.4,7.9,34.2
			z"/>
	</g>
	<g class="st2">
		<path class="st3" d="M50.8,20.6c-2.8,0.1-5.6,0.6-8.2,1.5c-2.6,0.9-5.1,2.2-7.3,3.8c-2.2,1.6-4.1,3.6-5.8,5.8
			c-1.6,2.2-2.9,4.7-3.9,7.3c0.3-1.4,0.7-2.7,1.2-4c0.5-1.3,1.2-2.5,2-3.7c1.6-2.4,3.5-4.5,5.8-6.2c2.3-1.7,4.9-3,7.6-3.7
			c1.4-0.4,2.8-0.6,4.2-0.8C48,20.4,49.4,20.4,50.8,20.6z"/>
	</g>
</g>
</svg>
